<svg xmlns="http://www.w3.org/2000/svg" width="29" height="29" viewBox="0 0 34 29">
  <g id="Icon_feather-instagram" data-name="Icon feather-instagram" transform="translate(1.5 1.5)">
    <path id="Path_18" data-name="Path 18" d="M9.632,3H22.9a6.632,6.632,0,0,1,6.632,6.632V22.9A6.632,6.632,0,0,1,22.9,29.528H9.632A6.632,6.632,0,0,1,3,22.9V9.632A6.632,6.632,0,0,1,9.632,3Z" transform="translate(-3 -3)" fill="none" stroke="#9f7919" stroke-linecap="round" stroke-linejoin="round" stroke-width="3"/>
    <path id="Path_19" data-name="Path 19" d="M22.619,16.462a5.306,5.306,0,1,1-4.47-4.47,5.306,5.306,0,0,1,4.47,4.47Z" transform="translate(-4.049 -4.034)" fill="none" stroke="#9f7919" stroke-linecap="round" stroke-linejoin="round" stroke-width="3"/>
    <path id="Path_20" data-name="Path 20" d="M26.25,9.75h0" transform="translate(-5.691 -3.781)" fill="none" stroke="#9f7919" stroke-linecap="round" stroke-linejoin="round" stroke-width="3"/>
  </g>
</svg>
